<svg width="100" height="100" viewBox="0 0 100 100" fill="none" xmlns="http://www.w3.org/2000/svg">
<path d="M43.0648 22V23.6362V30.1371V33.1236H39.5098V28.7173H22V30.3282V35.7213V37.3578V44.1644V64.2403V65.8512V72.6834V77.9999H36.4368H39.5098H46.1377H55.9531V70.493V40.6815L65.5636 77.9999L78 74.4151L65.672 26.5588L55.9531 29.3604V22H43.0648ZM46.1377 25.2536H52.8801V26.8644H46.1377V25.2536ZM46.1377 30.1371H52.8801V70.493H46.1377V33.1236V30.1371ZM63.515 30.5448L74.2221 72.1357L67.7448 74.0075L57.0316 32.4168L63.515 30.5448ZM25.0971 31.9644H36.4127V35.7213H25.0971V31.9644ZM39.5098 36.3961H43.0648V70.4928V72.1037V74.7526H39.5098V72.6831V36.3961ZM25.0971 38.9684H36.4127V40.8914H25.0971V38.9684ZM25.0971 44.1644H36.4127V64.2403H25.0971V44.1644ZM25.0971 67.4874H36.4127V69.4104H25.0971V67.4874ZM25.0971 72.6831H36.4127V74.7526H25.0971V72.6831ZM46.1377 73.7401H52.8801V74.7526H46.1377V73.7401Z" fill="#A39675"/>
</svg>

