<svg width="100" height="100" viewBox="0 0 100 100" fill="none" xmlns="http://www.w3.org/2000/svg">
<path fill-rule="evenodd" clip-rule="evenodd" d="M24 28.25C23.0335 28.25 22.25 29.0335 22.25 30V70C22.25 70.9665 23.0335 71.75 24 71.75H54.25V80C54.25 80.5625 54.5204 81.0908 54.9768 81.4197C55.4331 81.7486 56.0197 81.8381 56.5534 81.6602L62 79.8447L67.4466 81.6602C67.9803 81.8381 68.5669 81.7486 69.0232 81.4197C69.4796 81.0908 69.75 80.5625 69.75 80V71.75H76C76.9665 71.75 77.75 70.9665 77.75 70V30C77.75 29.0335 76.9665 28.25 76 28.25H24ZM69.75 68.25H74.25V31.75H25.75V68.25H54.25V62C54.25 61.973 54.2506 61.9461 54.2518 61.9193C52.9961 60.2781 52.25 58.2262 52.25 56C52.25 50.6152 56.6152 46.25 62 46.25C67.3848 46.25 71.75 50.6152 71.75 56C71.75 58.2262 71.0039 60.2781 69.7482 61.9193C69.7494 61.9461 69.75 61.973 69.75 62V68.25ZM57.75 70V77.572L61.4466 76.3398C61.8058 76.2201 62.1942 76.2201 62.5534 76.3398L66.25 77.572V70V64.7774C64.9655 65.4006 63.5235 65.75 62 65.75C60.4765 65.75 59.0345 65.4006 57.75 64.7774V70ZM32 38.25C31.0335 38.25 30.25 39.0335 30.25 40C30.25 40.9665 31.0335 41.75 32 41.75H54C54.9665 41.75 55.75 40.9665 55.75 40C55.75 39.0335 54.9665 38.25 54 38.25H32ZM62 49.75C58.5482 49.75 55.75 52.5482 55.75 56C55.75 59.4518 58.5482 62.25 62 62.25C65.4518 62.25 68.25 59.4518 68.25 56C68.25 52.5482 65.4518 49.75 62 49.75ZM30.25 48C30.25 47.0335 31.0335 46.25 32 46.25H42C42.9665 46.25 43.75 47.0335 43.75 48C43.75 48.9665 42.9665 49.75 42 49.75H32C31.0335 49.75 30.25 48.9665 30.25 48Z" fill="#A39675"/>
</svg>
