<svg width="100" height="100" viewBox="0 0 100 100" fill="none" xmlns="http://www.w3.org/2000/svg">
<g clip-path="url(#clip0_215_1015)">
<path d="M81.2198 21.34H51.7798V18.78H48.2198V21.34H18.7798V63.3H40.8998L34.1398 79.08V81.23H37.6998V79.82L44.7698 63.31H48.2198V81.23H51.7798V63.31H55.2298L62.2998 79.82V81.23H65.8598V79.08L59.0998 63.3H81.2198V21.34ZM36.6998 59.74H30.0198V58.18H36.6998V59.74ZM77.6598 59.74H40.2598V54.62H26.4598V59.74H22.3398V24.9H77.6598V59.74Z" fill="#A39675"/>
<path d="M67.1396 40.54H63.5796V55.62H67.1396V40.54Z" fill="#A39675"/>
<path d="M60.7397 46.94H57.1797V55.62H60.7397V46.94Z" fill="#A39675"/>
<path d="M41.0397 39.72L49.9997 48.68L68.2497 30.42L65.7397 27.91L49.9997 43.64L41.0397 34.68L27.9097 47.81L30.4197 50.33L41.0397 39.72Z" fill="#A39675"/>
<path d="M73.54 34.14H69.98V55.62H73.54V34.14Z" fill="#A39675"/>
</g>
<defs>
<clipPath id="clip0_215_1015">
<rect width="62.44" height="62.44" fill="white" transform="translate(18.7798 18.78)"/>
</clipPath>
</defs>
</svg>
