<svg width="100" height="100" viewBox="0 0 100 100" fill="none" xmlns="http://www.w3.org/2000/svg">
<path d="M58.225 59.825C60.5246 58.0515 62.4989 55.8924 64.0601 53.4438C66.0514 52.7333 73.7424 49.0454 74.1653 34.3521C74.1753 34.0317 74.1204 33.7127 74.0039 33.4141C73.8874 33.1155 73.7117 32.8435 73.4875 32.6145C73.2614 32.3821 72.9914 32.197 72.6931 32.07C72.3947 31.943 72.0741 31.8767 71.7499 31.875H66.9166V28.25C66.9166 27.2886 66.5346 26.3666 65.8548 25.6867C65.175 25.0069 64.253 24.625 63.2916 24.625H36.7082C35.7468 24.625 34.8248 25.0069 34.145 25.6867C33.4651 26.3666 33.0832 27.2886 33.0832 28.25V31.875H28.2499C27.9257 31.8758 27.6049 31.9414 27.3063 32.0677C27.0078 32.1941 26.7374 32.3787 26.5111 32.6109C26.2867 32.8397 26.1109 33.1117 25.9944 33.4103C25.8779 33.7089 25.8231 34.0281 25.8332 34.3485C26.2561 49.0454 33.9472 52.7333 35.9385 53.4401C37.4997 55.8888 39.474 58.0479 41.7736 59.8213C42.8029 60.6326 43.9461 61.2878 45.1666 61.7655V64.5C45.1666 65.1409 44.9119 65.7556 44.4587 66.2088C44.0055 66.6621 43.3908 66.9167 42.7499 66.9167H39.1249C37.5231 66.9186 35.9875 67.5557 34.8549 68.6884C33.7223 69.821 33.0851 71.3566 33.0832 72.9583C33.0832 73.5993 33.3378 74.214 33.791 74.6672C34.2443 75.1204 34.8589 75.375 35.4999 75.375H64.4999C65.1408 75.375 65.7555 75.1204 66.2087 74.6672C66.6619 74.214 66.9166 73.5993 66.9166 72.9583C66.9146 71.3566 66.2775 69.821 65.1449 68.6884C64.0123 67.5557 62.4767 66.9186 60.8749 66.9167H57.2499C56.609 66.9167 55.9943 66.6621 55.541 66.2088C55.0878 65.7556 54.8332 65.1409 54.8332 64.5V61.7655C56.053 61.2888 57.1959 60.6349 58.225 59.825ZM71.7499 34.2796C71.4901 43.295 68.3448 47.6099 65.8991 49.6133C66.5716 47.7029 66.9156 45.6924 66.9166 43.6671V34.2917L71.7499 34.2796ZM28.2499 34.2917H33.0832V43.6671C33.0837 45.6925 33.4277 47.7031 34.1006 49.6133C31.6538 47.6087 28.5109 43.2962 28.2499 34.2917ZM35.4999 43.6671V28.25C35.4999 27.9295 35.6272 27.6222 35.8538 27.3956C36.0804 27.169 36.3878 27.0417 36.7082 27.0417H63.2916C63.612 27.0417 63.9194 27.169 64.146 27.3956C64.3726 27.6222 64.4999 27.9295 64.4999 28.25V43.6671C64.4999 49.0551 61.8838 53.8534 56.7255 57.9255C54.8128 59.4444 52.4423 60.2712 49.9999 60.2712C47.5575 60.2712 45.187 59.4444 43.2743 57.9255C38.1159 53.8534 35.4999 49.0551 35.4999 43.6671ZM57.2499 69.3333H60.8749C61.8363 69.3333 62.7583 69.7153 63.4382 70.3951C64.118 71.0749 64.4999 71.9969 64.4999 72.9583H35.4999C35.4999 71.9969 35.8818 71.0749 36.5616 70.3951C37.2414 69.7153 38.1635 69.3333 39.1249 69.3333H42.7499C44.0318 69.3333 45.2611 68.8241 46.1676 67.9177C47.074 67.0113 47.5832 65.7819 47.5832 64.5V62.4628C49.1795 62.7721 50.8203 62.7721 52.4166 62.4628V64.5C52.4166 65.7819 52.9258 67.0113 53.8322 67.9177C54.7386 68.8241 55.968 69.3333 57.2499 69.3333Z" fill="#A39675" stroke="#A39675"/>
<path d="M54.0758 49.5759C54.2608 49.6417 54.4591 49.6615 54.6534 49.6335C54.8478 49.6055 55.0324 49.5305 55.1913 49.4151C55.3502 49.2996 55.4785 49.1472 55.5652 48.971C55.6519 48.7948 55.6944 48.6001 55.6889 48.4038L55.5681 44.0792L58.2059 40.6511C58.3256 40.4956 58.4056 40.3133 58.4391 40.1199C58.4725 39.9265 58.4583 39.7278 58.3977 39.5412C58.3372 39.3545 58.2321 39.1854 58.0915 39.0484C57.9509 38.9115 57.779 38.8109 57.5908 38.7552L53.4414 37.5312L50.9957 33.963C50.8787 33.8097 50.7278 33.6854 50.5549 33.5999C50.382 33.5144 50.1918 33.4699 49.9989 33.4699C49.806 33.4699 49.6157 33.5144 49.4428 33.5999C49.2699 33.6854 49.119 33.8097 49.002 33.963L46.5563 37.5312L42.4069 38.7552C42.2187 38.8109 42.0469 38.9115 41.9063 39.0484C41.7657 39.1854 41.6605 39.3545 41.6 39.5412C41.5394 39.7278 41.5252 39.9265 41.5587 40.1199C41.5921 40.3133 41.6721 40.4956 41.7919 40.6511L44.4309 44.0792L44.31 48.4038C44.3045 48.6001 44.347 48.7948 44.4337 48.971C44.5204 49.1472 44.6487 49.2996 44.8076 49.4151C44.9665 49.5305 45.1511 49.6055 45.3455 49.6335C45.5399 49.6615 45.7381 49.6417 45.9232 49.5759L50.0001 48.1259L54.0758 49.5759ZM46.7762 46.7073L46.8584 43.7167C46.867 43.4388 46.7786 43.1667 46.6083 42.9469L44.7825 40.575L47.6535 39.7292C47.92 39.6505 48.1513 39.4824 48.3084 39.2531L50.0001 36.7844L51.6917 39.2519C51.8488 39.4812 52.0801 39.6493 52.3467 39.7279L55.2177 40.5738L53.3931 42.9457C53.2228 43.1655 53.1344 43.4376 53.1429 43.7154L53.2239 46.7073L50.4049 45.7044C50.1428 45.6125 49.8573 45.6125 49.5953 45.7044L46.7762 46.7073Z" fill="#A39675" stroke="#A39675"/>
</svg>
