<svg width="100" height="100" viewBox="0 0 100 100" fill="none" xmlns="http://www.w3.org/2000/svg">
<g clip-path="url(#clip0_215_1031)">
<path fill-rule="evenodd" clip-rule="evenodd" d="M80.05 20.91C79.98 20.73 79.87 20.57 79.73 20.43C79.59 20.29 79.43 20.19 79.25 20.11C79.07 20.03 78.88 20 78.69 20H20.45C20.06 20 19.7 20.16 19.43 20.44C19.15 20.71 19 21.08 19 21.47V61.41C19 61.6 19.04 61.79 19.11 61.97C19.18 62.15 19.29 62.31 19.43 62.45C19.57 62.59 19.73 62.69 19.91 62.77C20.09 62.84 20.28 62.88 20.47 62.88H38.43C38.9 64.71 39.81 66.4 41.08 67.79L38.2 74.81C38.1 75.07 38.07 75.34 38.12 75.61C38.17 75.88 38.29 76.13 38.47 76.33C38.65 76.53 38.88 76.68 39.14 76.76C39.4 76.84 39.68 76.84 39.94 76.76L42.77 76L44.22 78.51C44.35 78.73 44.53 78.92 44.75 79.05C44.97 79.18 45.22 79.25 45.48 79.25H45.58C45.85 79.23 46.12 79.14 46.34 78.98C46.56 78.82 46.74 78.6 46.84 78.35L49.61 71.62L52.38 78.35C52.48 78.6 52.66 78.82 52.88 78.98C53.1 79.14 53.36 79.23 53.63 79.25H53.65H53.73C53.99 79.25 54.24 79.18 54.46 79.05C54.68 78.92 54.86 78.74 54.99 78.51L56.45 76.01L59.25 76.77C59.51 76.84 59.79 76.84 60.05 76.77C60.31 76.69 60.54 76.55 60.72 76.34C60.9 76.14 61.02 75.89 61.07 75.62C61.12 75.35 61.09 75.08 60.99 74.83L58.1 67.81C59.38 66.41 60.29 64.72 60.76 62.89H78.69C78.88 62.89 79.07 62.85 79.25 62.78C79.43 62.71 79.59 62.6 79.73 62.46C79.87 62.32 79.97 62.16 80.05 61.98C80.12 61.8 80.16 61.61 80.16 61.42V21.47C80.16 21.28 80.12 21.09 80.05 20.91ZM77.24 56.51V59.95H73.56C73.8 59.11 74.27 58.34 74.91 57.74C75.56 57.12 76.37 56.7 77.24 56.51ZM25.24 59.96H21.92V56.61C22.7 56.85 23.42 57.27 24 57.86C24.58 58.45 25.01 59.17 25.23 59.96H25.24ZM21.96 26.27V22.93H25.27C25.04 23.71 24.62 24.44 24.04 25.02C23.46 25.61 22.74 26.03 21.96 26.27ZM77.24 29.31V53.54C75.6 53.76 74.06 54.5 72.86 55.65C71.65 56.8 70.85 58.31 70.56 59.95H61.08C61.05 56.93 59.84 54.05 57.71 51.91C55.56 49.75 52.63 48.54 49.59 48.53H49.09V48.57C46.22 48.7 43.5 49.89 41.46 51.93C39.32 54.06 38.11 56.95 38.08 59.96H28.26C27.97 58.39 27.22 56.94 26.08 55.81C24.95 54.68 23.5 53.92 21.93 53.63V29.25C23.5 28.96 24.95 28.21 26.08 27.07C27.21 25.93 27.97 24.49 28.26 22.92H70.58C70.87 24.55 71.68 26.06 72.89 27.21C74.09 28.36 75.62 29.09 77.26 29.31H77.24ZM42.44 55.27C43.38 53.86 44.72 52.76 46.29 52.11C47.86 51.46 49.59 51.29 51.25 51.62C52.91 51.95 54.45 52.77 55.65 53.97C56.85 55.17 57.67 56.7 58 58.37C58.33 60.04 58.16 61.76 57.51 63.33C56.86 64.9 55.76 66.24 54.35 67.18C52.94 68.12 51.28 68.63 49.58 68.63C47.3 68.63 45.12 67.72 43.51 66.11C41.9 64.5 40.99 62.32 40.99 60.04C40.99 58.34 41.49 56.68 42.44 55.27ZM55.75 69.77L57.13 73.19L56.13 72.9C55.82 72.81 55.48 72.83 55.18 72.95C54.88 73.07 54.63 73.3 54.47 73.58L53.95 74.49L52.59 71.17C53.71 70.87 54.79 70.4 55.77 69.77H55.75ZM73.57 22.92H77.24V26.31C76.37 26.12 75.57 25.7 74.93 25.1C74.29 24.5 73.83 23.75 73.58 22.92H73.57ZM46.58 71.16L45.24 74.48L44.72 73.58C44.56 73.3 44.31 73.08 44.01 72.95C43.71 72.83 43.38 72.81 43.06 72.89L42.05 73.18L43.43 69.76C44.41 70.38 45.47 70.85 46.59 71.15L46.58 71.16Z" fill="#A39675"/>
<path fill-rule="evenodd" clip-rule="evenodd" d="M36.6101 28.31C36.7601 28.45 36.9501 28.55 37.1401 28.61C37.3301 28.67 37.5201 28.69 37.7201 28.67H61.4401C61.6401 28.69 61.8301 28.67 62.0201 28.61C62.2201 28.55 62.4001 28.44 62.5501 28.31C62.7001 28.17 62.8301 28 62.9101 27.82C62.9901 27.63 63.0401 27.43 63.0401 27.22C63.0401 27.01 63.0001 26.81 62.9101 26.62C62.8301 26.43 62.7001 26.26 62.5501 26.13C62.4001 25.99 62.2101 25.89 62.0201 25.83C61.8301 25.77 61.6401 25.75 61.4401 25.77H37.7201C37.5201 25.75 37.3301 25.77 37.1401 25.83C36.9401 25.89 36.7601 26 36.6101 26.13C36.4601 26.27 36.3301 26.44 36.2501 26.62C36.1701 26.81 36.1201 27.01 36.1201 27.22C36.1201 27.43 36.1601 27.63 36.2501 27.82C36.3301 28.01 36.4601 28.18 36.6101 28.31Z" fill="#A39675"/>
<path fill-rule="evenodd" clip-rule="evenodd" d="M27.8298 39.2H27.8598H71.2998H71.3298C71.6898 39.16 72.0198 38.98 72.2598 38.72C72.4998 38.45 72.6298 38.1 72.6298 37.74C72.6298 37.38 72.4998 37.03 72.2598 36.76C72.0198 36.49 71.6898 36.32 71.3298 36.28H71.2998H27.8598H27.8298C27.4698 36.32 27.1398 36.5 26.8998 36.76C26.6598 37.02 26.5298 37.38 26.5298 37.74C26.5298 38.1 26.6598 38.45 26.8998 38.72C27.1398 38.99 27.4698 39.16 27.8298 39.2Z" fill="#A39675"/>
<path fill-rule="evenodd" clip-rule="evenodd" d="M72.2898 43.79C72.0198 43.52 71.6498 43.37 71.2698 43.37H27.8298C27.4698 43.41 27.1398 43.59 26.8998 43.85C26.6598 44.12 26.5298 44.47 26.5298 44.83C26.5298 45.19 26.6598 45.54 26.8998 45.81C27.1398 46.08 27.4698 46.25 27.8298 46.29H27.8598H71.2698C71.4598 46.29 71.6498 46.25 71.8298 46.18C72.0098 46.11 72.1698 46 72.3098 45.86C72.4498 45.72 72.5498 45.56 72.6298 45.38C72.6998 45.2 72.7398 45.01 72.7398 44.82C72.7398 44.43 72.5798 44.07 72.2998 43.8L72.2898 43.79Z" fill="#A39675"/>
<path fill-rule="evenodd" clip-rule="evenodd" d="M45.0701 65.41C45.0401 65.59 45.0701 65.77 45.1301 65.94C45.1901 66.11 45.3101 66.25 45.4501 66.36C45.6001 66.46 45.7701 66.53 45.9501 66.54C46.1301 66.55 46.3101 66.51 46.4701 66.43L49.5701 64.76L52.7001 66.4C52.8401 66.47 52.9901 66.51 53.1501 66.51C53.2901 66.51 53.4301 66.48 53.5601 66.43C53.6901 66.37 53.8001 66.29 53.8901 66.18C53.9801 66.07 54.0501 65.95 54.0801 65.81C54.1201 65.67 54.1201 65.53 54.1001 65.39L53.5001 61.91L56.0601 59.44C56.1901 59.31 56.2801 59.16 56.3201 58.98C56.3601 58.81 56.3601 58.62 56.3001 58.45C56.2401 58.28 56.1401 58.13 56.0101 58.01C55.8701 57.89 55.7101 57.82 55.5301 57.79L52.0001 57.31L50.4301 54.11C50.3501 53.95 50.2301 53.81 50.0801 53.72C49.9301 53.62 49.7501 53.57 49.5701 53.57C49.3901 53.57 49.2101 53.62 49.0601 53.72C48.9101 53.82 48.7801 53.95 48.7101 54.11L47.1401 57.31L43.6401 57.82C43.4601 57.85 43.3001 57.92 43.1601 58.04C43.0201 58.16 42.9201 58.31 42.8701 58.48C42.8101 58.65 42.8101 58.83 42.8501 59.01C42.8901 59.18 42.9801 59.34 43.1101 59.47L45.6701 61.94L45.0701 65.42V65.41ZM47.9501 59.11C48.1001 59.08 48.2401 59.02 48.3601 58.93C48.4801 58.84 48.5801 58.72 48.6501 58.58L49.5801 56.7L50.5101 58.58C50.5801 58.72 50.6801 58.84 50.8101 58.93C50.9401 59.02 51.0801 59.08 51.2401 59.1L53.3101 59.4L51.8101 60.86C51.7001 60.97 51.6101 61.1 51.5601 61.25C51.5101 61.4 51.4901 61.56 51.5101 61.71L51.8601 63.78L50.0401 62.81C49.9001 62.73 49.7501 62.69 49.5901 62.69C49.4301 62.69 49.2801 62.73 49.1401 62.81L47.2901 63.78L47.6701 61.71C47.7001 61.56 47.6801 61.4 47.6401 61.25C47.5901 61.1 47.5101 60.97 47.4001 60.86L45.9001 59.4L47.9701 59.1L47.9501 59.11Z" fill="#A39675"/>
<path fill-rule="evenodd" clip-rule="evenodd" d="M48.27 53.89L48.81 53.29C48.58 53.44 48.39 53.64 48.27 53.89Z" fill="#A39675"/>
</g>
<defs>
<clipPath id="clip0_215_1031">
<rect width="61.16" height="59.24" fill="white" transform="translate(19 20)"/>
</clipPath>
</defs>
</svg>
