<svg width="100" height="100" viewBox="0 0 100 100" fill="none" xmlns="http://www.w3.org/2000/svg">
<g clip-path="url(#clip0_215_1040)">
<path d="M82.5603 48.55L75.1803 32.54C74.4803 30.99 72.9303 30 71.3503 30C70.6503 30 70.0803 30.14 69.5103 30.42L66.7703 31.67C64.8503 32.57 63.9903 34.71 64.5403 36.67C63.9103 36.61 63.4503 36.53 63.1003 36.41C62.4903 36.22 62.1603 35.96 61.6503 35.56C61.6203 35.53 61.5803 35.51 61.5403 35.48V35.47C61.4203 35.38 61.2903 35.29 61.1503 35.18C60.3103 34.56 59.1203 33.66 56.8103 32.78C56.1103 32.5 54.9203 32.28 53.7203 32.31C52.9103 32.33 52.0403 32.48 51.3003 32.85C47.7603 31.75 45.3503 32.63 44.7803 32.92L37.1403 36.5H36.4903C36.9503 34.59 36.0703 32.54 34.2103 31.67L31.4603 30.42C30.8903 30.14 30.3203 30 29.6203 30C28.0403 30 26.4903 31 25.7903 32.54L18.4003 48.54C17.9903 49.52 17.8403 50.65 18.2703 51.8V51.82C18.6703 52.75 19.3603 53.76 20.5303 54.21L23.1303 55.45C23.7003 55.73 24.2703 55.88 24.9703 55.88C26.6803 55.88 28.1003 54.87 28.8003 53.34L28.8403 53.25L30.4503 54.2C30.4003 54.35 30.3403 54.51 30.3103 54.66C30.1203 55.48 30.1503 56.41 30.5103 57.22V57.25L30.5403 57.27C30.7403 57.61 31.0703 58.1 31.6603 58.45C32.1503 58.75 32.7903 58.94 33.6203 58.92C33.7103 59.75 34.0203 60.65 34.7403 61.36L34.7603 61.38H34.7803C35.5403 62.02 36.5203 62.43 37.7003 62.41C37.9003 63.18 38.3203 64.17 39.1703 64.79C39.7903 65.28 40.6003 65.56 41.4503 65.55C41.8003 67 42.6803 68.43 43.8603 69.08V69.09C43.8803 69.09 43.8903 69.11 43.9103 69.11C44.3703 69.34 44.9703 69.64 45.5903 69.64C46.1703 69.64 46.7703 69.49 47.3603 69.06L50.2203 67.53L50.9103 68.65C51.6203 69.79 52.9103 70.51 54.2103 70.51C54.9303 70.51 55.6303 70.23 56.2303 69.99C56.2403 69.99 56.2603 69.98 56.2703 69.97L56.3203 69.95L56.3603 69.92C57.0603 69.45 57.5503 68.8 57.8703 68.05C58.1103 68.1 58.3503 68.13 58.5903 68.13C59.2903 68.13 60.0103 67.99 60.7203 67.56C61.4303 67.12 61.9503 66.49 62.2603 65.78C62.5303 65.84 62.8003 65.88 63.0803 65.88C63.7803 65.88 64.5003 65.74 65.2103 65.31H65.2203V65.3C66.0803 64.73 66.6503 63.87 66.9203 62.9C67.0203 62.55 67.0303 62.19 67.0203 61.83C67.5503 61.73 68.0503 61.49 68.4603 61.19C70.3303 60.16 70.8703 57.72 69.7403 55.88L69.6203 55.69L72.4003 53.9C73.1603 55.12 74.4403 55.89 75.9303 55.89C76.6303 55.89 77.2103 55.75 77.7703 55.46L80.3703 54.22C81.5403 53.77 82.2403 52.76 82.6303 51.83V51.81C83.0603 50.66 82.9103 49.53 82.5003 48.56L82.5603 48.55ZM74.4603 51.69C74.4403 51.5 74.3803 51.32 74.2903 51.14V51.11L74.2603 51.08C74.2103 51.01 74.1503 50.94 74.0903 50.87L68.2103 38.11C68.1803 37.77 68.0203 37.46 67.8103 37.24L67.3103 36.16C67.0203 35.37 67.3403 34.58 68.0203 34.32H68.0403L70.6803 33.05C70.9303 32.92 71.0803 32.85 71.3303 32.85C71.5203 32.85 71.7603 32.93 72.0003 33.09C72.2303 33.25 72.4103 33.46 72.4903 33.66L79.8703 49.69C80.0403 50.04 80.0603 50.39 79.9803 50.77C79.9503 50.81 79.9303 50.85 79.9003 50.89C79.8203 51.02 79.7503 51.13 79.6603 51.24C79.5403 51.38 79.4403 51.45 79.3303 51.48H79.2803L76.6103 52.76C76.3903 52.88 76.1003 52.96 75.9603 52.96C75.4503 52.96 74.9703 52.62 74.6503 52.1L74.4503 51.66L74.4603 51.69ZM63.1003 62.99C62.7603 62.99 62.4503 62.82 62.3003 62.52V62.5L58.4303 56.39C58.4003 56.27 58.3603 56.14 58.3003 56.02V55.99L58.2703 55.96C58.1303 55.75 57.9803 55.57 57.8103 55.39C57.7003 55.06 57.6403 54.82 57.7103 54.5C57.7903 54.28 57.9303 54.12 58.1503 53.9C58.3603 53.8 58.5103 53.74 58.7303 53.74C59.0703 53.74 59.3803 53.91 59.5303 54.21V54.23L62.9203 59.58C62.9503 59.68 62.9903 59.78 63.0503 59.88C63.1803 60.1 63.3303 60.3 63.4803 60.48L64.0203 61.34C64.1303 61.68 64.1903 61.92 64.1203 62.23C64.0403 62.45 63.9003 62.61 63.6803 62.83C63.4703 62.92 63.2203 62.99 63.1003 62.99ZM59.5303 63.59C59.8103 64.16 59.7003 64.74 59.2003 65.08C58.6803 65.43 58.0303 65.23 57.8003 64.77C57.7903 64.74 57.7603 64.72 57.7503 64.69C57.7203 64.63 57.7003 64.57 57.6803 64.52V64.5L54.0403 58.62L54.0203 58.59C53.8803 58.37 53.8603 58.16 53.8503 57.83C53.9503 57.57 54.1303 57.32 54.3803 57.16C54.6003 57.02 54.8003 57 55.0703 57.09L55.1503 57.12H55.2303C55.3103 57.12 55.4103 57.15 55.5203 57.22L59.5203 63.56C59.5203 63.56 59.5203 63.58 59.5303 63.59ZM49.7703 61.22C49.6303 61 49.6103 60.79 49.6003 60.33C49.7103 60.06 49.8603 59.89 50.0103 59.84H50.0403L50.0703 59.81C50.3503 59.67 50.4903 59.61 50.6003 59.61C51.0903 59.61 51.3803 59.8 51.5303 60.08V60.1H51.5403L55.1503 65.96C55.1903 66.04 55.2303 66.17 55.2503 66.31C55.2703 66.47 55.2703 66.6 55.2403 66.69C55.1503 66.96 54.9703 67.24 54.7903 67.44C54.5803 67.53 54.3303 67.6 54.2103 67.6C54.0903 67.6 53.9303 67.55 53.7603 67.44C53.6003 67.34 53.4603 67.2 53.3803 67.07L49.7603 61.2L49.7703 61.22ZM62.8503 54.04C62.8003 53.83 62.7803 53.61 62.8303 53.4C62.9003 53.11 63.0603 52.89 63.2303 52.79H63.2403V52.78C63.7603 52.43 64.4103 52.63 64.6403 53.09V53.11L67.3003 57.4L67.3203 57.42C67.5803 57.75 67.5103 58.39 66.9803 58.78C66.6203 58.9 66.4203 58.94 66.2403 58.88C66.0603 58.82 65.8903 58.72 65.7303 58.6L62.8403 54.03L62.8503 54.04ZM67.1403 51.6C66.0003 49.75 63.5703 49.16 61.8203 50.32C61.3503 50.61 60.9603 50.99 60.6603 51.42C60.0703 51.07 59.3903 50.87 58.7103 50.87C58.0303 50.87 57.2903 51.01 56.5803 51.44H56.5703V51.45C55.7103 52.02 55.1403 52.88 54.8703 53.85C54.8403 53.94 54.8303 54.04 54.8103 54.13C54.0903 54.13 53.4303 54.3 52.8203 54.7C52.1003 55.18 51.4703 55.91 51.2103 56.79C51.0103 56.76 50.8103 56.74 50.6003 56.74C49.9203 56.74 49.1803 56.87 48.5603 57.33C47.7503 57.87 47.0203 58.71 46.8603 59.76C46.5803 60.77 46.7403 61.77 47.2903 62.74L48.7203 65.07L45.8403 66.56L45.8203 66.58C45.6703 66.68 45.6103 66.68 45.6003 66.68C45.5903 66.68 45.5303 66.68 45.3803 66.58H45.3703L45.3503 66.56C45.0403 66.38 44.7203 65.99 44.4803 65.47C44.3403 65.18 44.2503 64.88 44.1903 64.6L46.0603 63.12L46.0803 63.1C46.6503 62.53 46.6303 61.64 46.2703 61.09L46.2403 61.05L46.2003 61.02C45.9403 60.76 45.5903 60.58 45.2203 60.53C44.8503 60.48 44.4503 60.57 44.1303 60.87L42.1303 62.56C41.8303 62.63 41.5903 62.67 41.4403 62.67C41.2703 62.67 41.1703 62.61 41.0803 62.52L41.0603 62.5L41.0403 62.48C40.8603 62.33 40.7003 62.03 40.6003 61.64C40.5703 61.52 40.5503 61.4 40.5303 61.28L44.0603 58.5L44.0803 58.48C44.3403 58.22 44.5203 57.87 44.5703 57.5C44.6203 57.13 44.5303 56.71 44.2103 56.4C43.9703 56.16 43.6503 55.96 43.2803 55.91C42.9003 55.86 42.5203 55.97 42.1803 56.22H42.1703L38.5203 59.31C38.1703 59.4 37.8303 59.46 37.5303 59.46C37.1703 59.46 36.9503 59.38 36.8403 59.26L36.8203 59.24L36.8003 59.22C36.6503 59.1 36.5503 58.84 36.5203 58.46C36.5103 58.29 36.5203 58.12 36.5203 57.98L41.1903 54.1L41.2103 54.08C41.4703 53.82 41.6503 53.47 41.7003 53.1C41.7503 52.73 41.6503 52.31 41.3403 52C40.7703 51.43 39.8803 51.45 39.3303 51.81L39.3103 51.83L34.4703 55.94C34.2303 55.98 33.9903 56.02 33.7503 56.03C33.5503 56.03 33.4003 56.03 33.2803 56C33.2303 55.99 33.1903 55.97 33.1703 55.96C33.1203 55.78 33.1203 55.55 33.1703 55.33C33.1903 55.21 33.2303 55.11 33.2603 55.05C33.2603 55.04 33.2703 55.03 33.2803 55.02L33.3103 55C35.0503 53.63 36.7903 52.39 38.5403 51.14C42.1203 48.55 45.7003 45.95 49.2903 43.24H50.6203C50.8303 43.24 51.1203 43.34 51.5003 43.57C51.8703 43.8 52.2803 44.12 52.6903 44.5C53.2503 45.01 53.7803 45.57 54.2503 46.06C54.4803 46.3 54.6903 46.53 54.8903 46.72C54.9103 46.74 54.9403 46.79 55.0103 46.89C55.0103 46.89 55.0103 46.89 55.0203 46.91C55.0703 46.99 55.1603 47.12 55.2603 47.22C56.6603 48.62 58.9303 48.93 60.5303 47.77C61.1803 47.27 61.7203 46.51 61.9203 45.5C62.1203 44.5 61.9603 43.29 61.3003 41.91L61.2803 41.88L61.2603 41.85C61.1503 41.69 61.0703 41.53 60.9803 41.34C60.8903 41.16 60.7903 40.96 60.6603 40.75C60.1703 39.76 59.6603 38.76 59.1603 37.88V37.86L59.1303 37.84C58.7203 37.28 58.1503 36.74 57.5103 36.24C58.5403 36.77 59.1503 37.26 59.6203 37.74L59.6503 37.77L59.7003 37.8C60.4403 38.36 61.1203 38.87 62.1703 39.22C63.0703 39.52 64.2203 39.71 65.8903 39.75L71.2303 51.33L68.1603 53.23L67.1703 51.62L67.1403 51.6ZM26.9203 50.46L26.9003 50.49V50.52C26.7803 50.72 26.7403 50.93 26.7303 51.12L26.2603 52.13C25.9403 52.65 25.4603 52.99 24.9503 52.99C24.8103 52.99 24.5203 52.9 24.3003 52.79L21.6203 51.51H21.5703C21.4603 51.47 21.3603 51.4 21.2403 51.26C21.1503 51.15 21.0803 51.04 21.0003 50.91C20.9803 50.87 20.9503 50.83 20.9203 50.79C20.8403 50.4 20.8503 50.06 21.0303 49.71L28.4403 33.7C28.5203 33.49 28.7003 33.28 28.9303 33.12C29.1703 32.96 29.4103 32.88 29.6003 32.88C29.8503 32.88 30.0103 32.95 30.2503 33.08L32.9003 34.34H32.9203C33.6003 34.6 33.9203 35.39 33.6303 36.19L33.2403 37.04C33.0403 37.26 32.9003 37.54 32.8603 37.86L27.1503 50.25C27.0703 50.32 26.9903 50.39 26.9303 50.47L26.9203 50.46ZM35.1703 39.49H37.4603C37.5703 39.49 37.6703 39.46 37.7303 39.44C37.7903 39.42 37.8403 39.39 37.8703 39.38C37.8703 39.38 37.8803 39.38 37.8903 39.37H37.9503L46.0003 35.53L46.0303 35.5C46.0303 35.5 46.0503 35.49 46.0603 35.48C46.1203 35.45 46.2003 35.42 46.3203 35.38C46.5503 35.3 46.8903 35.22 47.3303 35.17C48.2003 35.08 49.4503 35.17 50.9903 35.81C51.0503 35.84 51.1203 35.88 51.2003 35.91C51.8703 36.24 52.9403 36.77 53.9903 37.39C55.1803 38.08 56.2603 38.84 56.7703 39.49C56.8903 39.74 57.0303 39.99 57.1603 40.24C57.4503 40.78 57.7403 41.35 57.9903 41.92V41.95C58.0803 42.14 58.1803 42.31 58.2603 42.47C58.2903 42.53 58.3203 42.59 58.3503 42.64C58.4603 42.84 58.5303 43 58.5803 43.14L58.6003 43.19L58.6303 43.24C58.9803 43.81 59.1203 44.32 59.1203 44.7C59.1203 45.08 58.9903 45.3 58.7803 45.44H58.7703L58.7603 45.46C58.4803 45.67 57.7803 45.71 57.3203 45.16V45.14L56.9303 44.76C56.1803 43.88 55.1903 42.8 54.1103 41.93C53.0403 41.07 51.8003 40.35 50.5603 40.35H48.6803C48.5003 40.35 48.3203 40.43 48.2103 40.48C48.1003 40.54 47.9703 40.61 47.8703 40.71C44.9303 42.77 41.9903 44.9 39.1203 46.99C38.3303 47.56 37.5503 48.13 36.7703 48.7V48.71C35.3203 49.85 33.8603 50.9 32.4003 51.95L30.0503 50.57L35.1603 39.48L35.1703 39.49Z" fill="#A39675"/>
</g>
<defs>
<clipPath id="clip0_215_1040">
<rect width="64" height="64" fill="white" transform="translate(18 18)"/>
</clipPath>
</defs>
</svg>
