<svg width="100" height="100" viewBox="0 0 100 100" fill="none" xmlns="http://www.w3.org/2000/svg">
<path fill-rule="evenodd" clip-rule="evenodd" d="M81.4898 52.67C81.4898 52.67 81.4898 52.57 81.4798 52.52C81.4698 52.44 81.4498 52.35 81.4298 52.27C81.4298 52.24 81.4298 52.22 81.4098 52.19L73.4098 28.19C73.4098 28.19 73.3898 28.17 73.3898 28.15C73.3298 28 73.2598 27.85 73.1698 27.72C73.1498 27.7 73.1298 27.68 73.1198 27.66C73.0298 27.55 72.9298 27.44 72.8098 27.36C72.7898 27.35 72.7798 27.33 72.7598 27.32C72.6298 27.23 72.4898 27.16 72.3398 27.11C72.3098 27.1 72.2798 27.09 72.2398 27.08C72.0798 27.03 71.9198 27 71.7498 27H55.2298C54.6698 25.23 53.2698 23.84 51.4998 23.27V20.75C51.4998 19.78 50.7198 19 49.7498 19C48.7798 19 47.9998 19.78 47.9998 20.75V23.27C46.2298 23.83 44.8398 25.23 44.2698 27H27.7498C27.5798 27 27.4198 27.03 27.2598 27.08C27.2298 27.08 27.1898 27.1 27.1598 27.11C27.0098 27.16 26.8698 27.23 26.7398 27.32C26.7198 27.33 26.7098 27.35 26.6898 27.36C26.5698 27.45 26.4698 27.55 26.3798 27.66C26.3598 27.68 26.3398 27.7 26.3298 27.72C26.2398 27.85 26.1598 27.99 26.1098 28.15C26.1098 28.16 26.0898 28.17 26.0898 28.19L18.0898 52.2C18.0898 52.2 18.0898 52.25 18.0698 52.28C18.0498 52.36 18.0298 52.44 18.0198 52.53C18.0198 52.58 18.0098 52.63 18.0098 52.68C18.0098 52.71 18.0098 52.73 18.0098 52.76C18.0098 58.13 22.3898 62.51 27.7598 62.51C33.1298 62.51 37.5098 58.13 37.5098 52.76C37.5098 52.73 37.5098 52.71 37.5098 52.68C37.5098 52.63 37.5098 52.58 37.4998 52.53C37.4898 52.45 37.4698 52.36 37.4498 52.28C37.4498 52.25 37.4498 52.23 37.4298 52.2L30.1998 30.5H44.2998C44.8598 32.27 46.2598 33.66 48.0298 34.23V59H47.7798C46.7798 59 45.8098 59.34 45.0898 60.06C44.3698 60.78 44.0298 61.75 44.0298 62.75V71H38.5798C35.9098 71 33.9498 72.79 33.1398 74.94C33.1298 74.97 33.1198 75 33.1098 75.03L32.1098 78.23C31.9398 78.76 32.0398 79.34 32.3698 79.79C32.6998 80.24 33.2198 80.5 33.7798 80.5H65.7798C66.3498 80.5 66.8898 80.22 67.2198 79.75C67.5498 79.28 67.6198 78.68 67.4198 78.14L66.2198 74.94C65.4198 72.79 63.4498 71 60.7798 71H55.5298V62.75C55.5298 61.75 55.1898 60.78 54.4698 60.06C53.7498 59.34 52.7798 59 51.7798 59H51.5298V34.23C53.2998 33.67 54.6898 32.27 55.2598 30.5H69.3598L62.1298 52.2C62.1298 52.2 62.1298 52.25 62.1098 52.28C62.0898 52.36 62.0698 52.44 62.0598 52.53C62.0598 52.58 62.0498 52.63 62.0498 52.68C62.0498 52.71 62.0498 52.73 62.0498 52.76C62.0498 58.13 66.4298 62.51 71.7998 62.51C77.1698 62.51 81.5498 58.13 81.5498 52.76C81.5498 52.73 81.5498 52.71 81.5498 52.68L81.4898 52.67ZM62.9098 76.17L63.2198 77.01H36.1298L36.3998 76.13C36.7998 75.1 37.6198 74.51 38.5498 74.51H60.7498C61.6798 74.51 62.5198 75.12 62.9098 76.17ZM51.9398 62.53C51.9398 62.53 51.9598 62.53 51.9598 62.54C51.9598 62.54 51.9598 62.54 51.9698 62.56C51.9698 62.59 51.9998 62.65 51.9998 62.75V71H47.4998V62.75C47.4998 62.64 47.5198 62.58 47.5298 62.56C47.5298 62.55 47.5298 62.54 47.5398 62.54C47.5398 62.54 47.5398 62.54 47.5598 62.53C47.5898 62.53 47.6498 62.5 47.7498 62.5H51.7498C51.8598 62.5 51.9198 62.52 51.9398 62.53ZM27.7498 59C24.9198 59 22.5098 57.09 21.7498 54.5H33.7498C32.9898 57.09 30.5798 59 27.7498 59ZM22.1798 51L27.7498 34.28L33.3198 51H22.1798ZM49.7498 31C48.5098 31 47.4998 29.99 47.4998 28.75C47.4998 27.51 48.5098 26.5 49.7498 26.5C50.9898 26.5 51.9998 27.51 51.9998 28.75C51.9998 29.99 50.9898 31 49.7498 31ZM71.7498 34.28L77.3198 51H66.1798L71.7498 34.28ZM71.7498 59C68.9198 59 66.5098 57.09 65.7498 54.5H77.7498C76.9898 57.09 74.5798 59 71.7498 59Z" fill="#A39675"/>
</svg>
